<svg width="24" height="24" viewBox="0 0 24 24" fill="none" xmlns="http://www.w3.org/2000/svg">
  <path fill-rule="evenodd" clip-rule="evenodd" d="M10.5 4.5C7.18629 4.5 4.5 7.18629 4.5 10.5C4.5 13.8137 7.18629 16.5 10.5 16.5C11.8858 16.5 13.1606 16.0305 14.1758 15.2419L18.216 19.2822C18.509 19.5752 18.9839 19.5752 19.2769 19.2822C19.5698 18.9893 19.5698 18.5144 19.2769 18.2215L15.2366 14.1812C16.0252 13.1661 16.4947 11.8912 16.4947 10.5055C16.4947 7.19178 13.8084 4.50549 10.4947 4.50549L10.5 4.5ZM6 10.5C6 8.01472 8.01472 6 10.5 6C12.9853 6 15 8.01472 15 10.5C15 12.9853 12.9853 15 10.5 15C8.01472 15 6 12.9853 6 10.5Z" fill="#ffffff"/>
  <path d="M10.5 8.25C10.9142 8.25 11.25 8.58579 11.25 9V9.75H12C12.4142 9.75 12.75 10.0858 12.75 10.5C12.75 10.9142 12.4142 11.25 12 11.25H11.25V12C11.25 12.4142 10.9142 12.75 10.5 12.75C10.0858 12.75 9.75 12.4142 9.75 12V11.25H9C8.58579 11.25 8.25 10.9142 8.25 10.5C8.25 10.0858 8.58579 9.75 9 9.75H9.75V9C9.75 8.58579 10.0858 8.25 10.5 8.25Z" fill="#ffffff"/>
</svg>
