<?xml version="1.0" encoding="UTF-8"?><svg id="Layer_2" xmlns="http://www.w3.org/2000/svg" xmlns:xlink="http://www.w3.org/1999/xlink" viewBox="0 0 512 512"><defs><clipPath id="clippath-1"><rect width="512" height="512" style="fill:none;"/></clipPath><mask id="rounded-corners-mask"><rect width="512" height="512" rx="48" ry="48" fill="white"/></mask></defs><g id="Layer_1" mask="url(#rounded-corners-mask)"><path d="M380.23,512H0V0h512v380.23c0,72.78-59,131.77-131.77,131.77Z" style="fill:#7ab6d3;"/><rect x="95.77" y="321.19" width="254.43" height="16.23" style="fill:#fff;"/><rect x="119.94" y="346.15" width="206.09" height="60.02" style="fill:#fff;"/><path d="M289.16,270.64v-11.73H93.53v51.29h254.43v-39.56h-58.79ZM153.5,304.65l-15.28-15.27,15.28-15.28,15.27,15.28-15.27,15.27ZM220.77,304.65l-15.28-15.27,15.28-15.28,15.27,15.28-15.27,15.27ZM284.63,304.65l-15.28-15.27,15.28-15.28,15.26,15.28-15.26,15.27Z" style="fill:#fff;"/><rect x="82.74" y="156.36" width="21.61" height="21.61" transform="translate(-90.8 115.1) rotate(-45)" style="fill:#fff;"/><polygon points="230.37 161.51 230.37 172.81 220.75 182.43 218.25 179.94 205.46 167.16 220.75 151.89 230.37 161.51" style="fill:#fff;"/><polygon points="347.35 181.83 347.96 181.21 347.96 182.43 347.35 181.83" style="fill:#fff;"/><polygon points="349.11 153.04 346.8 153.04 347.96 151.89 349.11 153.04" style="fill:#fff;"/><polygon points="286.27 242.93 289.16 240.03 289.16 250.19 93.54 250.19 93.54 181.21 94.16 181.83 155.25 242.93 218.25 179.94 220.56 177.63 220.97 177.63 230.37 187.03 230.37 211.84 255.18 211.84 286.27 242.93" style="fill:#fff;"/><polygon points="347.96 181.21 347.96 182.43 347.35 181.83 347.96 181.21" style="fill:#fff;"/><polygon points="347.96 181.21 347.35 181.83 347.96 182.43 347.96 211.84 289.16 211.84 289.16 153.04 347.96 153.04 347.96 181.21" style="fill:#fff;"/><polygon points="347.96 181.21 347.96 182.43 347.35 181.83 347.96 181.21" style="fill:#fff;"/><rect x="347.96" y="105.83" width="47.21" height="47.21" style="fill:#fff;"/><polygon points="347.96 151.89 347.96 153.04 346.8 153.04 347.96 151.89" style="fill:#fff;"/><rect x="241.17" y="106.29" width="37.18" height="37.18" style="fill:#fff;"/><rect x="403.73" y="267.01" width="39.87" height="39.87" style="fill:#fff;"/><rect x="416.22" y="157.69" width="39.87" height="39.87" style="fill:#fff;"/><rect x="347.96" y="211.84" width="58.8" height="58.8" style="fill:#fff;"/><g style="clip-path:url(#clippath-1);"><polygon points="539.25 240.85 456.09 157.69 446.73 157.39 395.17 105.83 347.96 105.83 347.96 153.04 325.26 153.04 278.35 106.29 241.17 106.29 241.17 143.8 289.24 191.53 289.24 211.84 347.96 270.64 339.6 270.64 220.75 151.89 205.46 167.16 218.25 179.94 169.88 228.22 107.01 165.35 93.54 151.88 93.54 182.94 93.54 250.19 102.36 259.01 93.53 259.01 93.53 310.2 104.51 321.18 95.77 321.19 95.77 337.42 119.88 361.54 119.94 406.17 255.69 541.99 539.25 541.99 539.25 240.85" style="fill:#3c80ad;"/></g><rect x="95.77" y="321.19" width="254.43" height="16.23" style="fill:#fffffd;"/><rect x="119.94" y="346.15" width="206.09" height="60.02" style="fill:#fffffd;"/><path d="M289.16,258.91H93.53v51.29h254.43v-39.56h-58.79v-11.73ZM153.5,304.65l-15.28-15.27,15.28-15.28,15.27,15.28-15.27,15.27ZM220.77,304.65l-15.28-15.27,15.28-15.28,15.27,15.28-15.27,15.27ZM299.9,289.37l-15.26,15.27-15.28-15.27,15.28-15.28,15.26,15.28Z" style="fill:#fffffd;"/><polygon points="93.54 182.44 93.54 250.19 289.16 250.19 289.16 240.03 286.27 242.93 255.18 211.84 230.37 211.84 230.37 187.03 223.26 179.92 230.37 172.81 230.37 161.51 220.75 151.89 205.46 167.16 218.25 179.94 155.25 242.93 94.16 181.83 94.15 181.83 108.82 167.16 93.54 151.88 78.26 167.16 93.54 182.44 93.54 182.44" style="fill:#fffffd;"/><polygon points="347.96 181.21 347.96 153.04 349.11 153.04 395.17 153.04 395.17 105.83 347.96 105.83 347.96 151.89 346.8 153.04 289.16 153.04 289.16 211.84 347.96 211.84 347.96 182.43 347.96 181.21" style="fill:#fffffd;"/><rect x="241.17" y="106.29" width="37.18" height="37.18" style="fill:#fffffd;"/><rect x="416.22" y="157.69" width="39.87" height="39.87" style="fill:#fffffd;"/><polygon points="406.76 211.84 347.96 211.84 347.96 270.64 403.73 270.64 403.73 306.88 443.61 306.88 443.61 267.01 406.76 267.01 406.76 211.84" style="fill:#fffffd;"/><rect x="95.77" y="321.19" width="254.43" height="16.23" style="fill:none;"/><rect x="119.94" y="346.15" width="206.09" height="60.02" style="fill:none;"/><path d="M289.16,270.64v-11.73H93.53v51.29h254.43v-39.56h-58.79ZM153.5,304.65l-15.28-15.27,15.28-15.28,15.27,15.28-15.27,15.27ZM220.77,304.65l-15.28-15.27,15.28-15.28,15.27,15.28-15.27,15.27ZM284.63,304.65l-15.28-15.27,15.28-15.28,15.26,15.28-15.26,15.27Z" style="fill:none;"/><rect x="82.74" y="156.36" width="21.61" height="21.61" transform="translate(-90.8 115.1) rotate(-45)" style="fill:none;"/><polygon points="230.37 161.51 230.37 172.81 220.75 182.43 218.25 179.94 205.46 167.16 220.75 151.89 230.37 161.51" style="fill:none;"/><polygon points="347.35 181.83 347.96 181.21 347.96 182.43 347.35 181.83" style="fill:none;"/><polygon points="349.11 153.04 346.8 153.04 347.96 151.89 349.11 153.04" style="fill:none;"/><polygon points="286.27 242.93 289.16 240.03 289.16 250.19 93.54 250.19 93.54 181.21 94.16 181.83 155.25 242.93 218.25 179.94 220.56 177.63 220.97 177.63 230.37 187.03 230.37 211.84 255.18 211.84 286.27 242.93" style="fill:none;"/><polygon points="347.96 181.21 347.96 182.43 347.35 181.83 347.96 181.21" style="fill:none;"/><polygon points="347.96 181.21 347.35 181.83 347.96 182.43 347.96 211.84 289.16 211.84 289.16 153.04 347.96 153.04 347.96 181.21" style="fill:none;"/><polygon points="347.96 181.21 347.96 182.43 347.35 181.83 347.96 181.21" style="fill:none;"/><rect x="347.96" y="105.83" width="47.21" height="47.21" style="fill:none;"/><polygon points="347.96 151.89 347.96 153.04 346.8 153.04 347.96 151.89" style="fill:none;"/><rect x="241.17" y="106.29" width="37.18" height="37.18" style="fill:none;"/><rect x="403.73" y="267.01" width="39.87" height="39.87" style="fill:none;"/><rect x="416.22" y="157.69" width="39.87" height="39.87" style="fill:none;"/><rect x="347.96" y="211.84" width="58.8" height="58.8" style="fill:none;"/><polygon points="347.96 153.04 347.96 157.76 352.3 153.04 349.11 153.04 347.96 153.04" style="fill:none;"/><polygon points="205.49 289.37 216.55 300.43 231.2 284.52 220.77 274.09 205.49 289.37" style="fill:none;"/><polygon points="138.22 289.37 153.5 304.65 168.78 289.37 153.5 274.09 138.22 289.37" style="fill:none;"/><polygon points="350.2 321.19 197.43 321.19 182.48 337.42 350.2 337.42 350.2 321.19" style="fill:#f7f7f7;"/><polygon points="326.03 406.17 326.03 346.15 174.44 346.15 119.94 405.32 119.94 406.17 326.03 406.17" style="fill:#f7f7f7;"/><path d="M347.96,270.64h-58.79v-11.73h-34.37l-23.59,25.62,4.84,4.85-15.27,15.27-4.22-4.22-9,9.77h140.41v-39.56ZM284.63,304.65l-15.28-15.27,15.28-15.28,15.26,15.28-15.26,15.27Z" style="fill:#f7f7f7;"/><polygon points="289.16 240.03 286.27 242.93 277.55 234.21 262.82 250.19 289.16 250.19 289.16 240.03" style="fill:#f7f7f7;"/><polygon points="395.17 153.04 395.17 106.51 352.3 153.04 395.17 153.04" style="fill:#f7f7f7;"/><polygon points="347.96 182.43 347.96 181.21 347.96 157.76 298.15 211.84 347.96 211.84 347.96 182.43" style="fill:#f7f7f7;"/><rect x="416.22" y="157.69" width="39.87" height="39.87" style="fill:#f7f7f7;"/><polygon points="403.73 270.64 403.73 306.88 443.61 306.88 443.61 267.01 406.76 267.01 406.76 211.84 347.96 211.84 347.96 270.64 403.73 270.64" style="fill:#f7f7f7;"/></g></svg>